<?xml version="1.0" encoding="UTF-8" standalone="no"?>
<!-- Created with Inkscape (http://www.inkscape.org/) -->

<svg
        xmlns:inkscape="http://www.inkscape.org/namespaces/inkscape"
        xmlns:sodipodi="http://sodipodi.sourceforge.net/DTD/sodipodi-0.dtd"
        width="500mm"
        height="266.66666mm"
        viewBox="0 0 500 266.66666"
        version="1.1"
        id="svg1"
        inkscape:version="1.3.2 (091e20e, 2023-11-25)"
        sodipodi:docname="404.svg"
        xmlns="http://www.w3.org/2000/svg">
    <sodipodi:namedview
            id="namedview1"
            pagecolor="#ffffff"
            bordercolor="#000000"
            borderopacity="0.25"
            inkscape:showpageshadow="2"
            inkscape:pageopacity="0.0"
            inkscape:pagecheckerboard="0"
            inkscape:deskcolor="#d1d1d1"
            inkscape:document-units="mm"
            inkscape:zoom="0.28"
            inkscape:cx="2085.7143"
            inkscape:cy="1508.9286"
            inkscape:window-width="1920"
            inkscape:window-height="1147"
            inkscape:window-x="1440"
            inkscape:window-y="25"
            inkscape:window-maximized="1"
            inkscape:current-layer="layer1"/>
    <defs
            id="defs1">
        <filter
                inkscape:collect="always"
                style="color-interpolation-filters:sRGB"
                id="filter3"
                x="-0.020192972"
                y="-0.040730063"
                width="1.0403859"
                height="1.0814601">
            <feGaussianBlur
                    inkscape:collect="always"
                    stdDeviation="1.0051411"
                    id="feGaussianBlur3"/>
        </filter>
    </defs>
    <g
            inkscape:label="Layer 1"
            inkscape:groupmode="layer"
            id="layer1"
            transform="translate(18.152171,6.4813247)"
            style="display:inline">
        <g
                id="g3"
                transform="matrix(3.7978201,0,0,3.8846573,-68.67359,-71.179748)"
                style="opacity:0.25;mix-blend-mode:normal;filter:url(#filter3)">
            <ellipse
                    style="fill:#07689f;stroke-width:1.308"
                    id="path1"
                    cx="124.92253"
                    cy="66.36142"
                    rx="14.948958"
                    ry="14.419791"/>
            <ellipse
                    style="fill:#07689f;stroke-width:1.308"
                    id="path1-3"
                    cx="35.356174"
                    cy="66.278122"
                    rx="14.948958"
                    ry="14.419791"/>
            <ellipse
                    style="fill:#07689f;stroke-width:1.308"
                    id="path2"
                    cx="64.017059"
                    cy="54.347664"
                    rx="28.839582"
                    ry="25.003124"/>
            <ellipse
                    style="fill:#07689f;stroke-width:1.47098"
                    id="path2-5"
                    cx="98.371109"
                    cy="49.496677"
                    rx="32.636845"
                    ry="27.94294"/>
            <rect
                    style="fill:#07689f;stroke-width:1.308"
                    id="rect3"
                    width="91.54583"
                    height="24.341667"
                    x="33.866665"
                    y="56.356251"/>
        </g>
        <path
                d="m 126.36934,117.54604 h 32.0377 v -9.71496 h -32.0377 V 4.0024913 H 107.26427 L 38.486074,102.36642 v 15.17962 h 73.774906 v 38.25263 h 14.10836 z M 112.26098,13.919842 V 107.83108 H 48.773412 Z M 219.54313,157.62023 c 18.81112,0 32.33163,-3.23832 39.97365,-9.71495 7.64203,-6.47664 11.46304,-16.79878 11.46304,-30.56164 V 42.659919 c 0,-13.358065 -4.11494,-23.477809 -11.75696,-30.156841 -7.93595,-6.4766374 -20.28076,-9.9173502 -36.7405,-9.9173502 -18.22328,0 -31.44985,3.2383184 -39.3858,9.7149552 -7.93595,6.476637 -11.75697,16.596381 -11.75697,30.359236 v 74.683721 c 0,13.76286 3.82102,23.8826 12.05089,30.35924 8.22987,6.67903 20.28076,9.91735 36.15265,9.91735 z M 255.40185,40.433575 v 79.338805 c 0,8.90537 -3.23317,15.7868 -9.11165,20.64428 -5.87848,4.85747 -14.99012,7.28622 -26.74707,7.28622 -6.46634,0 -11.75697,-0.60719 -15.87189,-2.02396 -4.11494,-1.21436 -7.64203,-3.23831 -9.99342,-5.66705 -2.64531,-2.42874 -4.40887,-5.26226 -5.29063,-8.70298 -1.1757,-3.23832 -1.46962,-7.08382 -1.46962,-11.13172 V 41.243154 c 0,-8.905377 2.64531,-15.989198 7.93595,-21.251465 5.29063,-5.262268 14.10835,-7.893402 27.041,-7.893402 6.1724,0 11.46303,1.011975 15.87189,2.631134 4.11494,1.61916 7.64203,3.845505 10.28734,6.476639 2.64532,2.833528 4.40886,5.869449 5.58455,9.107768 1.17569,3.440714 1.76355,6.881427 1.76355,10.119747 z m 115.51186,77.112465 h 32.03771 v -9.71496 H 370.91371 V 4.0024913 H 351.80866 L 283.03045,102.36642 v 15.17962 h 73.77491 v 38.25263 h 14.10835 z M 356.80536,13.919842 v 93.911238 h -63.48757 z"
                id="text1"
                style="font-size:63.5px;font-family:Artica;-inkscape-font-specification:'Artica, Normal';fill:#07689f;stroke-width:1.28913"
                inkscape:label="404"
                aria-label="404"/>
        <path
                style="font-size:21.1667px;font-family:Artica;-inkscape-font-specification:'Artica, Normal';fill:#07689f;stroke-width:6.37114"
                d="m 246.37271,226.43665 c 3.03013,0 5.56889,-0.32285 7.69817,-0.96853 2.12929,-0.64569 3.84908,-1.61422 5.15942,-2.9863 1.31032,-1.29138 2.21118,-2.98631 2.78443,-5.00408 0.57327,-1.93706 0.90086,-4.27769 0.90086,-7.02186 v -30.02445 c 0,-5.1655 -1.31033,-9.12034 -3.84909,-11.7838 -2.53876,-2.66346 -6.46973,-4.03554 -11.71104,-4.03554 -5.81458,0 -9.99125,1.37208 -12.61191,3.95483 -2.62065,2.66346 -3.84908,6.69901 -3.84908,12.02593 v 29.86303 c 0,10.65385 5.15942,15.98077 15.47824,15.98077 z m 12.20242,-46.08593 v 29.94374 c 0,1.77565 -0.24569,3.38986 -0.65517,4.84266 -0.40947,1.4528 -1.06464,2.74417 -1.96549,3.79341 -0.98274,1.12996 -2.21118,1.93707 -3.76719,2.58275 -1.556,0.64569 -3.5215,0.88783 -5.81457,0.88783 -2.21118,0 -4.01287,-0.32287 -5.487,-1.12996 -1.47412,-0.80711 -2.62065,-1.77564 -3.4396,-2.98631 -0.81895,-1.21065 -1.39222,-2.58274 -1.71981,-4.03553 -0.32759,-1.45281 -0.49137,-2.8249 -0.49137,-4.27769 v -28.65238 c 0,-1.77564 0.16378,-3.47056 0.57326,-5.08478 0.3276,-1.5335 0.98275,-2.9056 1.88361,-4.03554 0.90085,-1.12996 2.12927,-2.09849 3.6853,-2.74417 1.556,-0.6457 3.5215,-0.96854 5.89646,-0.96854 2.12928,0 3.84909,0.40355 5.32321,1.12996 1.47411,0.72639 2.62065,1.69492 3.5215,2.82488 0.81895,1.12995 1.47412,2.42133 1.88359,3.79341 0.3276,1.4528 0.57327,2.82488 0.57327,4.11626 z m 27.92633,46.08593 c 3.03013,0 5.56889,-0.32285 7.69817,-0.96853 2.12929,-0.64569 3.84908,-1.61422 5.15942,-2.9863 1.31032,-1.29138 2.21118,-2.98631 2.78445,-5.00408 0.57325,-1.93706 0.90084,-4.27769 0.90084,-7.02186 v -30.02445 c 0,-5.1655 -1.31033,-9.12034 -3.84909,-11.7838 -2.53876,-2.66346 -6.46973,-4.03554 -11.71104,-4.03554 -5.81458,0 -9.99125,1.37208 -12.61191,3.95483 -2.62065,2.66346 -3.84909,6.69901 -3.84909,12.02593 v 29.86303 c 0,10.65385 5.15941,15.98077 15.47825,15.98077 z m 12.20242,-46.08593 v 29.94374 c 0,1.77565 -0.24568,3.38986 -0.65517,4.84266 -0.40947,1.4528 -1.06463,2.74417 -1.96549,3.79341 -0.98274,1.12996 -2.21118,1.93707 -3.76718,2.58275 -1.55602,0.64569 -3.52151,0.88783 -5.81458,0.88783 -2.21118,0 -4.01288,-0.32287 -5.487,-1.12996 -1.47412,-0.80711 -2.62065,-1.77564 -3.4396,-2.98631 -0.81897,-1.21065 -1.39224,-2.58274 -1.71981,-4.03553 -0.32759,-1.45281 -0.49137,-2.8249 -0.49137,-4.27769 v -28.65238 c 0,-1.77564 0.16378,-3.47056 0.57327,-5.08478 0.32759,-1.5335 0.98274,-2.9056 1.8836,-4.03554 0.90085,-1.12996 2.12927,-2.09849 3.68528,-2.74417 1.55602,-0.6457 3.5215,-0.96854 5.89648,-0.96854 2.12928,0 3.84908,0.40355 5.32321,1.12996 1.47411,0.72639 2.62065,1.69492 3.5215,2.82488 0.81895,1.12995 1.47412,2.42133 1.88359,3.79341 0.3276,1.4528 0.57327,2.82488 0.57327,4.11626 z m 24.81435,22.59905 c 2.78445,0 5.24131,-0.40356 7.53439,-1.37208 2.29306,-0.88783 4.25855,-2.1792 5.89646,-3.87413 1.63791,-1.61421 2.86635,-3.63199 3.76719,-5.8919 0.90085,-2.2599 1.39222,-4.84265 1.39222,-7.58682 0,-6.13403 -1.55601,-10.89598 -4.66804,-14.12441 -3.11203,-3.22843 -7.28869,-4.92337 -12.69379,-4.92337 h -14.82307 v 60.53319 h 4.74993 v -22.76048 z m -0.40948,-33.65644 c 2.86635,0 5.24131,0.40355 7.1249,1.21065 1.80171,0.80711 3.27583,1.85636 4.34047,3.14773 0.98274,1.37209 1.71979,2.9863 2.12928,4.76194 0.32759,1.77565 0.57326,3.7127 0.57326,5.64977 0,1.93706 -0.32759,3.7934 -0.81895,5.56905 -0.49137,1.77564 -1.39222,3.30914 -2.53876,4.60052 -1.14654,1.29137 -2.70255,2.34062 -4.58614,3.14773 -1.96549,0.8071 -4.25857,1.12994 -7.04301,1.12994 h -7.61628 v -29.21733 z m 39.55543,57.14332 c 4.91373,0 8.68093,-1.29137 11.46536,-3.95483 2.78445,-2.66346 4.17667,-6.69901 4.17667,-12.02594 0,-2.74417 -0.57327,-5.00408 -1.63791,-6.86043 -1.06464,-1.85634 -2.37496,-3.47057 -4.01287,-4.92337 -1.63791,-1.29136 -3.43961,-2.42131 -5.32321,-3.38985 -1.88359,-0.88782 -3.76718,-1.77563 -5.65078,-2.58275 -1.6379,-0.64568 -3.19393,-1.37208 -4.50425,-2.09847 -1.31032,-0.6457 -2.45686,-1.45281 -3.4396,-2.34062 -0.98276,-0.88783 -1.71981,-1.93707 -2.29308,-3.14774 -0.57327,-1.12995 -0.90085,-2.58275 -0.90085,-4.27767 -0.16378,-3.79342 0.65517,-6.86043 2.53876,-9.12034 1.88359,-2.25989 4.99562,-3.38985 9.41798,-3.38985 1.80169,0 3.4396,0.32285 4.74992,0.96854 1.31034,0.64568 2.45688,1.45279 3.35772,2.50202 0.81895,1.12996 1.47412,2.34062 1.88359,3.79342 0.40949,1.45279 0.65517,2.98631 0.65517,4.60053 v 4.84264 h 4.58614 v -4.43909 c 0,-5.32692 -1.39222,-9.28176 -4.09477,-11.94522 -2.70255,-2.66346 -6.38785,-4.03554 -10.97399,-4.03554 -5.40509,0 -9.49986,1.37208 -12.36621,3.95483 -2.86634,2.66346 -4.25856,6.69901 -4.25856,12.02593 0,2.42133 0.24568,4.43909 0.90085,6.05331 0.65517,1.61423 1.55601,3.06702 2.86634,4.27769 1.22843,1.29137 2.86634,2.42131 4.83183,3.38985 1.96549,0.96853 4.25857,2.01778 6.87922,2.9863 1.6379,0.64569 3.19393,1.45281 4.66804,2.25991 1.47412,0.80711 2.78444,1.77563 3.93098,2.82488 1.14654,1.12995 2.04739,2.34062 2.70255,3.7127 0.65516,1.37209 1.06464,2.98631 1.06464,4.76195 0,1.61422 -0.24569,3.06701 -0.57326,4.51981 -0.40948,1.4528 -1.06465,2.74417 -2.04739,3.79342 -0.98274,1.12995 -2.21118,1.93706 -3.6853,2.58275 -1.55601,0.64569 -3.4396,0.96853 -5.56888,0.96853 -2.62066,0 -4.58616,-0.48426 -6.06028,-1.4528 -1.47411,-0.96853 -2.53875,-2.17919 -3.19392,-3.7127 -0.73705,-1.53351 -1.14653,-3.22843 -1.31032,-5.08479 -0.16378,-1.85636 -0.24568,-3.632 -0.24568,-5.40763 h -4.91374 c -0.16378,3.55127 0.16379,6.53758 0.81897,8.95891 0.65515,2.50204 1.71979,4.51981 3.19391,6.05332 1.39223,1.5335 3.11203,2.66346 5.24131,3.30915 2.04738,0.72639 4.42236,1.04924 7.1249,1.04924 z m 21.94796,-0.7264 h 6.46973 v -6.21474 h -6.46973 z m 11.95672,0 h 6.46975 v -6.21474 h -6.46975 z m 11.95674,0 h 6.46971 v -6.21474 h -6.46971 z"
                id="text4"
                inkscape:label="oops"
                aria-label="Oops..."/>
    </g>
</svg>
