<?xml version="1.0" encoding="UTF-8" standalone="no"?>
<!--
  - This file is part of the Doky Project.
  -
  - Copyright (C) 2022-2026
  -  - Hanna Kurhuzenkava (hanna.kurhuzenkava@outlook.com)
  -  - Anton Kurhuzenkau (kurguzenkov@gmail.com)
  -
  - This program is free software: you can redistribute it and/or modify it under the terms of the GNU General Public License
  - as published by the Free Software Foundation, either version 3 of the License, or (at your option) any later version.
  -
  - This program is distributed in the hope that it will be useful, but WITHOUT ANY WARRANTY; without even the implied warranty
  - of MERCHANTABILITY or FITNESS FOR A PARTICULAR PURPOSE. See the GNU General Public License for more details.
  -
  - You should have received a copy of the GNU General Public License along with this program. If not, see https://www.gnu.org/licenses/gpl-3.0.en.html.
  -
  - Contact Information:
  -  - Project Homepage: https://github.com/hanna-eismant/doky
  -->

<svg
        xmlns:inkscape="http://www.inkscape.org/namespaces/inkscape"
        xmlns:sodipodi="http://sodipodi.sourceforge.net/DTD/sodipodi-0.dtd"
        version="1.1"
        width="984.66998"
        height="954.66998"
        viewBox="0 0 984.66998 954.67"
        id="svg10"
        sodipodi:docname="Color logo with background.svg"
        inkscape:version="1.3.2 (091e20e, 2023-11-25)"
        xmlns="http://www.w3.org/2000/svg">
    <defs
            id="defs10"/>
    <sodipodi:namedview
            id="namedview10"
            pagecolor="#ffffff"
            bordercolor="#000000"
            borderopacity="0.25"
            inkscape:showpageshadow="2"
            inkscape:pageopacity="0.0"
            inkscape:pagecheckerboard="0"
            inkscape:deskcolor="#d1d1d1"
            inkscape:zoom="0.71"
            inkscape:cx="733.09859"
            inkscape:cy="385.21127"
            inkscape:window-width="1920"
            inkscape:window-height="1147"
            inkscape:window-x="1440"
            inkscape:window-y="25"
            inkscape:window-maximized="1"
            inkscape:current-layer="svg10"/>
    <rect
            fill="#07689f"
            width="3200"
            height="954.67047"
            id="rect1"
            x="0"
            y="0"/>
    <g
            transform="matrix(10,0,0,10,100,100)"
            id="g10">
        <defs
                id="SvgjsDefs6037"/>
        <g
                id="SvgjsG6038"
                featureKey="tOsHRK-0"
                transform="matrix(0.16423732,0,0,0.16423732,-2.1186614,-4.3851366)"
                fill="#a2d5f2">
            <g
                    id="g9">
                <g
                        id="g8">
                    <g
                            id="g1">
                        <path
                                d="M 478.6,396.6 H 34.4 C 22.6,396.6 13,387 13,375.1 V 48.2 C 13,36.4 22.6,26.7 34.4,26.7 h 444.2 c 11.8,0 21.4,9.6 21.4,21.5 v 326.9 c 0,11.9 -9.6,21.5 -21.4,21.5 z M 34.4,34.8 C 27,34.8 21,40.8 21,48.3 v 326.9 c 0,7.4 6,13.5 13.4,13.5 h 444.2 c 7.4,0 13.4,-6 13.4,-13.5 v -327 c 0,-7.4 -6,-13.5 -13.4,-13.5 H 34.4 Z"
                                id="path1"/>
                    </g>
                    <g
                            id="g2">
                        <path
                                d="m 314.6,455.8 c 0,0 0,0 0,0 H 198.3 c -1.2,0 -2.3,-0.5 -3,-1.4 -0.8,-0.9 -1.1,-2.1 -0.9,-3.2 l 9.4,-59.2 c 0.3,-1.9 2,-3.4 4,-3.4 h 97.6 c 2,0 3.6,1.4 4,3.4 l 9.3,58.8 c 0.1,0.3 0.1,0.7 0.1,1 -0.2,2.2 -1.9,4 -4.2,4 z m -111.6,-8 h 107 l -8.1,-51.2 h -90.7 z"
                                id="path2"/>
                    </g>
                    <g
                            id="g3">
                        <path
                                d="M 352.3,486.2 H 160.7 c -2.2,0 -4,-1.8 -4,-4 v -30.4 c 0,-2.2 1.8,-4 4,-4 h 191.6 c 2.2,0 4,1.8 4,4 v 30.4 c 0,2.2 -1.8,4 -4,4 z m -187.6,-8 H 348.3 V 455.8 H 164.7 Z"
                                id="path3"/>
                    </g>
                    <g
                            id="g4">
                        <path
                                d="M 496,322.2 H 16.9 c -2.2,0 -4,-1.8 -4,-4 0,-2.2 1.8,-4 4,-4 H 496 c 2.2,0 4,1.8 4,4 0,2.2 -1.8,4 -4,4 z"
                                id="path4"/>
                    </g>
                    <g
                            id="g5">
                        <path
                                d="m 256.5,376.7 c -11.8,0 -21.4,-9.6 -21.4,-21.3 0,-11.8 9.6,-21.4 21.4,-21.4 11.8,0 21.4,9.6 21.4,21.4 -0.1,11.8 -9.6,21.3 -21.4,21.3 z m 0,-34.7 c -7.4,0 -13.4,6 -13.4,13.4 0,7.4 6,13.3 13.4,13.3 7.4,0 13.4,-6 13.4,-13.3 C 269.8,348 263.8,342 256.5,342 Z"
                                id="path5"/>
                    </g>
                    <g
                            id="g6">
                        <path
                                d="m 269.4,267.2 h -25 c -2.2,0 -4,-1.8 -4,-4 v -14.5 c -8.6,-1.9 -16.7,-5.2 -24.3,-9.9 l -10.4,10.4 c -0.8,0.8 -1.8,1.2 -2.8,1.2 0,0 0,0 0,0 -1.1,0 -2.1,-0.4 -2.8,-1.2 l -17.7,-17.7 c -1.6,-1.6 -1.6,-4.1 0,-5.7 l 10.3,-10.2 c -4.7,-7.3 -8.2,-15.5 -10.2,-24.2 h -14.7 c -2.2,0 -4,-1.8 -4,-4 v -25 c 0,-2.2 1.8,-4 4,-4 h 14.5 c 1.9,-8.7 5.2,-16.8 9.9,-24.3 l -10.4,-10.4 c -1.6,-1.6 -1.6,-4.1 0,-5.7 l 17.7,-17.7 c 0.8,-0.8 1.8,-1.2 2.8,-1.2 0,0 0,0 0,0 1.1,0 2.1,0.4 2.8,1.2 l 10.2,10.3 c 7.4,-4.8 15.5,-8.2 24.2,-10.2 V 85.7 c 0,-2.2 1.8,-4 4,-4 h 25 c 2.2,0 4,1.8 4,4 v 14.5 c 8.6,1.9 16.8,5.2 24.3,9.9 l 10.4,-10.4 c 0.8,-0.8 1.8,-1.2 2.8,-1.2 v 0 c 1.1,0 2.1,0.4 2.8,1.2 l 17.7,17.7 c 1.6,1.6 1.6,4.1 0,5.7 l -10.3,10.2 c 4.7,7.3 8.2,15.5 10.2,24.2 h 14.7 c 2.2,0 4,1.8 4,4 v 25 c 0,2.2 -1.8,4 -4,4 h -14.5 c -1.9,8.6 -5.2,16.8 -9.9,24.3 l 10.4,10.4 c 1.6,1.6 1.6,4.1 0,5.7 l -17.7,17.6 c -1.6,1.6 -4.1,1.6 -5.7,0 l -10.2,-10.3 c -7.4,4.8 -15.5,8.2 -24.2,10.2 v 14.7 c 0.1,2.3 -1.7,4.1 -3.9,4.1 z m -21.1,-8 h 17 v -14 c 0,-1.9 1.4,-3.6 3.3,-3.9 9.9,-1.8 19,-5.7 27.1,-11.4 1.6,-1.1 3.8,-1 5.1,0.4 l 9.8,9.8 12,-12 -9.9,-9.9 c -1.4,-1.4 -1.6,-3.5 -0.5,-5.1 5.7,-8.2 9.4,-17.4 11.1,-27.2 0.3,-1.9 2,-3.3 3.9,-3.3 H 341 v -17 h -13.9 c -1.9,0 -3.6,-1.4 -3.9,-3.3 -1.8,-9.8 -5.7,-19.2 -11.4,-27.1 -1.1,-1.6 -1,-3.8 0.4,-5.2 l 9.8,-9.8 -12,-12 -9.9,9.9 c -1.4,1.4 -3.5,1.6 -5.1,0.5 -8.3,-5.7 -17.4,-9.5 -27.2,-11.1 -1.9,-0.3 -3.3,-2 -3.3,-3.9 V 89.7 h -17 v 14 c 0,1.9 -1.4,3.6 -3.3,3.9 -9.8,1.8 -19,5.7 -27.1,11.4 -1.6,1.1 -3.8,0.9 -5.2,-0.4 l -9.8,-9.8 -12,12 9.9,9.9 c 1.4,1.4 1.6,3.5 0.5,5.1 -5.7,8.2 -9.4,17.3 -11.1,27.2 -0.3,1.9 -2,3.3 -3.9,3.3 h -13.8 v 17 h 13.9 c 1.9,0 3.6,1.4 3.9,3.3 1.8,9.8 5.7,19.2 11.4,27.1 1.1,1.6 1,3.8 -0.4,5.2 l -9.8,9.8 12,12 9.9,-9.9 c 1.4,-1.4 3.5,-1.6 5.1,-0.5 8.3,5.7 17.4,9.4 27.2,11.1 1.9,0.3 3.3,2 3.3,3.9 z"
                                id="path6"/>
                    </g>
                    <g
                            id="g7">
                        <path
                                d="m 256.5,217.7 c -23.8,0 -43.2,-19.4 -43.2,-43.3 0,-23.8 19.4,-43.2 43.2,-43.2 23.8,0 43.2,19.4 43.2,43.2 0,23.9 -19.4,43.3 -43.2,43.3 z m 0,-78.5 c -19.4,0 -35.2,15.8 -35.2,35.2 0,19.5 15.8,35.3 35.2,35.3 19.4,0 35.2,-15.8 35.2,-35.3 0,-19.4 -15.8,-35.2 -35.2,-35.2 z"
                                id="path7"/>
                    </g>
                </g>
            </g>
        </g>
        <g
                id="SvgjsG6039"
                featureKey="dVtZHI-0"
                transform="matrix(3.8761941,0,0,3.8761941,100.3101,-10.838309)"
                fill="#fafafa">
            <path
                    d="M 7.22,16.96 C 7.12666,17.37334 6.99,17.76334 6.81,18.13 6.63,18.49666 6.39334,18.82 6.1,19.1 5.80666,19.38 5.45,19.6 5.03,19.76 4.61,19.92 4.12,20 3.56,20 H -0.08 V 5 h 3.5 C 4.4333,5 5.2833,5.23666 5.97,5.71 6.6567,6.18334 7.1,6.98 7.3,8.1 c 0.04,0.21334 0.07334,0.54334 0.1,0.99 0.02666,0.44666 0.04666,0.96 0.06,1.54 0.01334,0.58 0.02,1.19 0.02,1.83 0,0.64 -0.01,1.2533 -0.03,1.84 -0.02,0.5867 -0.05,1.1167 -0.09,1.59 -0.04,0.4733 -0.08666,0.83 -0.14,1.07 z M 3.24,6.02 0.92,6.0200195 V 18.92002 h 2.6 c 0.36,0 0.68,-0.06334 0.96,-0.19 0.28,-0.12666 0.53,-0.29332 0.75,-0.49998 0.22,-0.20666 0.40334,-0.43666 0.55,-0.69 0.14666,-0.25334 0.26666,-0.5 0.36,-0.74 0.06666,-0.17334 0.12332,-0.48668 0.16998,-0.94002 0.04666,-0.45334 0.08,-0.97 0.1,-1.55 0.02,-0.58 0.03,-1.1967 0.03,-1.85 0,-0.6533 -0.01,-1.2667 -0.03,-1.84 -0.02,-0.5733 -0.05,-1.0800005 -0.09,-1.5200005 -0.04,-0.44 -0.08666,-0.74666 -0.14,-0.92 -0.08,-0.24 -0.18666,-0.49 -0.32,-0.75 -0.13334,-0.26 -0.31,-0.49334 -0.53,-0.7 -0.22,-0.20666 -0.5,-0.37666 -0.84,-0.51 -0.34,-0.13334 -0.75666,-0.2 -1.25,-0.2 z m 14.979,14.16 c -2.52,0 -3.78,-1.32 -3.78,-3.96 v -7.4 c 0,-1.3333 0.31666,-2.3266 0.95,-2.98 0.63334,-0.6534 1.6567,-0.98 3.07,-0.98 1.2933,0 2.25,0.33 2.87,0.99 0.62,0.66 0.93,1.6367 0.93,2.93 v 7.44 c 0,0.66666 -0.07,1.2467 -0.21,1.74 -0.14,0.4933 -0.37,0.90668 -0.69,1.24 -0.32,0.33332 -0.73666,0.58 -1.25,0.74 -0.51334,0.16 -1.1433,0.24 -1.89,0.24 z M 21.199,8.76 C 21.199,8.42666 21.15236,8.08662 21.05902,7.74 20.96568,7.39338 20.81234,7.07668 20.599,6.79002 c -0.21334,-0.28666 -0.49668,-0.52 -0.85002,-0.7 -0.35334,-0.18 -0.79,-0.27 -1.31,-0.27 -0.57334,0 -1.05,0.08 -1.43,0.24 -0.38,0.16 -0.68,0.38334 -0.9,0.67 -0.22,0.28666 -0.37666,0.62332 -0.47,1.01 -0.09334,0.38668 -0.14,0.80666 -0.14,1.26 v 7.1 c 0,0.34666 0.04,0.7 0.12,1.06 0.08,0.36 0.22334,0.69 0.43,0.99 0.20666,0.3 0.48666,0.54666 0.84,0.74 0.35334,0.19334 0.79668,0.29 1.33,0.29 0.57334,0 1.05,-0.07666 1.43,-0.23 0.38,-0.15334 0.68334,-0.36334 0.91,-0.63 0.22666,-0.26666 0.39,-0.58332 0.49,-0.94998 0.1,-0.36666 0.15,-0.76332 0.15,-1.19 v -7.42 z M 35.998,20 l -3.52,-8.14 -2.04,3.06 V 20 h -1 V 5 h 1 v 7.9 L 35.518,5 h 1.24 l -3.52,6.1 3.92,8.9 z M 47.897,13.14 V 20 h -1.08 V 13.14 L 43.197,5 h 1.24 l 2.9,6.94 2.94,-6.94 h 1.24 z"
                    id="path9"/>
        </g>
    </g>
</svg>
