<svg xmlns="http://www.w3.org/2000/svg" version="1.1" width="3200"
     height="954.6704894146108" viewBox="0 0 3200 954.6704894146108">

    <g transform="scale(10) translate(10, 10)">
        <defs id="SvgjsDefs6037"/>
        <g id="SvgjsG6038" featureKey="tOsHRK-0"
           transform="matrix(0.1642373208736911,0,0,0.1642373208736911,-2.1186613766190496,-4.385136592630684)"
           fill="#fff">
            <g xmlns="http://www.w3.org/2000/svg">
                <g>
                    <g>
                        <path d="M478.6,396.6H34.4c-11.8,0-21.4-9.6-21.4-21.5V48.2c0-11.8,9.6-21.5,21.4-21.5h444.2c11.8,0,21.4,9.6,21.4,21.5v326.9     C500,387,490.4,396.6,478.6,396.6z M34.4,34.8c-7.4,0-13.4,6-13.4,13.5v326.9c0,7.4,6,13.5,13.4,13.5h444.2     c7.4,0,13.4-6,13.4-13.5V48.2c0-7.4-6-13.5-13.4-13.5H34.4z"/>
                    </g>
                    <g>
                        <path d="M314.6,455.8C314.6,455.8,314.6,455.8,314.6,455.8H198.3c-1.2,0-2.3-0.5-3-1.4c-0.8-0.9-1.1-2.1-0.9-3.2l9.4-59.2     c0.3-1.9,2-3.4,4-3.4h97.6c2,0,3.6,1.4,4,3.4l9.3,58.8c0.1,0.3,0.1,0.7,0.1,1C318.6,454,316.9,455.8,314.6,455.8z M203,447.8h107     l-8.1-51.2h-90.7L203,447.8z"/>
                    </g>
                    <g>
                        <path d="M352.3,486.2H160.7c-2.2,0-4-1.8-4-4v-30.4c0-2.2,1.8-4,4-4h191.6c2.2,0,4,1.8,4,4v30.4     C356.3,484.4,354.5,486.2,352.3,486.2z M164.7,478.2h183.6v-22.4H164.7V478.2z"/>
                    </g>
                    <g>
                        <path d="M496,322.2H16.9c-2.2,0-4-1.8-4-4s1.8-4,4-4H496c2.2,0,4,1.8,4,4S498.2,322.2,496,322.2z"/>
                    </g>
                    <g>
                        <path d="M256.5,376.7c-11.8,0-21.4-9.6-21.4-21.3c0-11.8,9.6-21.4,21.4-21.4c11.8,0,21.4,9.6,21.4,21.4     C277.8,367.2,268.3,376.7,256.5,376.7z M256.5,342c-7.4,0-13.4,6-13.4,13.4c0,7.4,6,13.3,13.4,13.3c7.4,0,13.4-6,13.4-13.3     C269.8,348,263.8,342,256.5,342z"/>
                    </g>
                    <g>
                        <path d="M269.4,267.2h-25c-2.2,0-4-1.8-4-4v-14.5c-8.6-1.9-16.7-5.2-24.3-9.9l-10.4,10.4c-0.8,0.8-1.8,1.2-2.8,1.2c0,0,0,0,0,0     c-1.1,0-2.1-0.4-2.8-1.2l-17.7-17.7c-1.6-1.6-1.6-4.1,0-5.7l10.3-10.2c-4.7-7.3-8.2-15.5-10.2-24.2h-14.7c-2.2,0-4-1.8-4-4v-25     c0-2.2,1.8-4,4-4h14.5c1.9-8.7,5.2-16.8,9.9-24.3l-10.4-10.4c-1.6-1.6-1.6-4.1,0-5.7l17.7-17.7c0.8-0.8,1.8-1.2,2.8-1.2     c0,0,0,0,0,0c1.1,0,2.1,0.4,2.8,1.2l10.2,10.3c7.4-4.8,15.5-8.2,24.2-10.2V85.7c0-2.2,1.8-4,4-4h25c2.2,0,4,1.8,4,4v14.5     c8.6,1.9,16.8,5.2,24.3,9.9l10.4-10.4c0.8-0.8,1.8-1.2,2.8-1.2h0c1.1,0,2.1,0.4,2.8,1.2l17.7,17.7c1.6,1.6,1.6,4.1,0,5.7     l-10.3,10.2c4.7,7.3,8.2,15.5,10.2,24.2h14.7c2.2,0,4,1.8,4,4v25c0,2.2-1.8,4-4,4h-14.5c-1.9,8.6-5.2,16.8-9.9,24.3l10.4,10.4     c1.6,1.6,1.6,4.1,0,5.7l-17.7,17.6c-1.6,1.6-4.1,1.6-5.7,0l-10.2-10.3c-7.4,4.8-15.5,8.2-24.2,10.2v14.7     C273.4,265.4,271.6,267.2,269.4,267.2z M248.3,259.2h17v-14c0-1.9,1.4-3.6,3.3-3.9c9.9-1.8,19-5.7,27.1-11.4     c1.6-1.1,3.8-1,5.1,0.4l9.8,9.8l12-12l-9.9-9.9c-1.4-1.4-1.6-3.5-0.5-5.1c5.7-8.2,9.4-17.4,11.1-27.2c0.3-1.9,2-3.3,3.9-3.3h13.8     v-17h-13.9c-1.9,0-3.6-1.4-3.9-3.3c-1.8-9.8-5.7-19.2-11.4-27.1c-1.1-1.6-1-3.8,0.4-5.2l9.8-9.8l-12-12l-9.9,9.9     c-1.4,1.4-3.5,1.6-5.1,0.5c-8.3-5.7-17.4-9.5-27.2-11.1c-1.9-0.3-3.3-2-3.3-3.9V89.7h-17v14c0,1.9-1.4,3.6-3.3,3.9     c-9.8,1.8-19,5.7-27.1,11.4c-1.6,1.1-3.8,0.9-5.2-0.4l-9.8-9.8l-12,12l9.9,9.9c1.4,1.4,1.6,3.5,0.5,5.1     c-5.7,8.2-9.4,17.3-11.1,27.2c-0.3,1.9-2,3.3-3.9,3.3h-13.8v17h13.9c1.9,0,3.6,1.4,3.9,3.3c1.8,9.8,5.7,19.2,11.4,27.1     c1.1,1.6,1,3.8-0.4,5.2l-9.8,9.8l12,12l9.9-9.9c1.4-1.4,3.5-1.6,5.1-0.5c8.3,5.7,17.4,9.4,27.2,11.1c1.9,0.3,3.3,2,3.3,3.9     L248.3,259.2L248.3,259.2z"/>
                    </g>
                    <g>
                        <path d="M256.5,217.7c-23.8,0-43.2-19.4-43.2-43.3c0-23.8,19.4-43.2,43.2-43.2s43.2,19.4,43.2,43.2     C299.7,198.3,280.3,217.7,256.5,217.7z M256.5,139.2c-19.4,0-35.2,15.8-35.2,35.2c0,19.5,15.8,35.3,35.2,35.3     c19.4,0,35.2-15.8,35.2-35.3C291.7,155,275.9,139.2,256.5,139.2z"/>
                    </g>
                </g>
            </g>
        </g>
        <g id="SvgjsG6039" featureKey="dVtZHI-0"
           transform="matrix(3.8761940566374964,0,0,3.8761940566374964,100.31009707711422,-10.83830917772605)"
           fill="#fff">
            <path d="M7.22 16.96 c-0.09334 0.41334 -0.23 0.80334 -0.41 1.17 s-0.41666 0.69 -0.71 0.97 s-0.65 0.5 -1.07 0.66 s-0.91 0.24 -1.47 0.24 l-3.64 0 l0 -15 l3.5 0 c1.0133 0 1.8633 0.23666 2.55 0.71 s1.13 1.27 1.33 2.39 c0.04 0.21334 0.07334 0.54334 0.1 0.99 s0.04666 0.96 0.06 1.54 s0.02 1.19 0.02 1.83 s-0.01 1.2533 -0.03 1.84 s-0.05 1.1167 -0.09 1.59 s-0.08666 0.83 -0.14 1.07 z M3.24 6.02 l-2.32 0.000019531 l0 12.9 l2.6 0 c0.36 0 0.68 -0.06334 0.96 -0.19 s0.53 -0.29332 0.75 -0.49998 s0.40334 -0.43666 0.55 -0.69 s0.26666 -0.5 0.36 -0.74 c0.06666 -0.17334 0.12332 -0.48668 0.16998 -0.94002 s0.08 -0.97 0.1 -1.55 s0.03 -1.1967 0.03 -1.85 s-0.01 -1.2667 -0.03 -1.84 s-0.05 -1.08 -0.09 -1.52 s-0.08666 -0.74666 -0.14 -0.92 c-0.08 -0.24 -0.18666 -0.49 -0.32 -0.75 s-0.31 -0.49334 -0.53 -0.7 s-0.5 -0.37666 -0.84 -0.51 s-0.75666 -0.2 -1.25 -0.2 z M18.219 20.18 c-2.52 0 -3.78 -1.32 -3.78 -3.96 l0 -7.4 c0 -1.3333 0.31666 -2.3266 0.95 -2.98 s1.6567 -0.98 3.07 -0.98 c1.2933 0 2.25 0.33 2.87 0.99 s0.93 1.6367 0.93 2.93 l0 7.44 c0 0.66666 -0.07 1.2467 -0.21 1.74 s-0.37 0.90668 -0.69 1.24 s-0.73666 0.58 -1.25 0.74 s-1.1433 0.24 -1.89 0.24 z M21.198999999999998 8.76 c0 -0.33334 -0.04664 -0.67338 -0.13998 -1.02 s-0.24668 -0.66332 -0.46002 -0.94998 s-0.49668 -0.52 -0.85002 -0.7 s-0.79 -0.27 -1.31 -0.27 c-0.57334 0 -1.05 0.08 -1.43 0.24 s-0.68 0.38334 -0.9 0.67 s-0.37666 0.62332 -0.47 1.01 s-0.14 0.80666 -0.14 1.26 l0 7.1 c0 0.34666 0.04 0.7 0.12 1.06 s0.22334 0.69 0.43 0.99 s0.48666 0.54666 0.84 0.74 s0.79668 0.29 1.33 0.29 c0.57334 0 1.05 -0.07666 1.43 -0.23 s0.68334 -0.36334 0.91 -0.63 s0.39 -0.58332 0.49 -0.94998 s0.15 -0.76332 0.15 -1.19 l0 -7.42 z M35.998 20 l-3.52 -8.14 l-2.04 3.06 l0 5.08 l-1 0 l0 -15 l1 0 l0 7.9 l5.08 -7.9 l1.24 0 l-3.52 6.1 l3.92 8.9 l-1.16 0 z M47.897 13.14 l0 6.86 l-1.08 0 l0 -6.86 l-3.62 -8.14 l1.24 0 l2.9 6.94 l2.94 -6.94 l1.24 0 z"/>
        </g>
    </g>
</svg>
